<?xml version="1.0" encoding="UTF-8" standalone="no"?>
<!-- Created with Inkscape (http://www.inkscape.org/) -->

<svg
   xmlns:dc="http://purl.org/dc/elements/1.1/"
   xmlns:cc="http://creativecommons.org/ns#"
   xmlns:rdf="http://www.w3.org/1999/02/22-rdf-syntax-ns#"
   xmlns:svg="http://www.w3.org/2000/svg"
   xmlns="http://www.w3.org/2000/svg"
   xmlns:sodipodi="http://sodipodi.sourceforge.net/DTD/sodipodi-0.dtd"
   xmlns:inkscape="http://www.inkscape.org/namespaces/inkscape"
   width="150mm"
   height="150mm"
   viewBox="0 0 150 150"
   version="1.1"
   id="svg8"
   inkscape:version="0.92.5 (2060ec1f9f, 2020-04-08)"
   sodipodi:docname="contatos.svg">
  <defs
     id="defs2" />
  <sodipodi:namedview
     id="base"
     pagecolor="#ffffff"
     bordercolor="#666666"
     borderopacity="1.0"
     inkscape:pageopacity="0.0"
     inkscape:pageshadow="2"
     inkscape:zoom="0.35"
     inkscape:cx="400"
     inkscape:cy="560"
     inkscape:document-units="mm"
     inkscape:current-layer="layer1"
     showgrid="false"
     inkscape:window-width="1366"
     inkscape:window-height="712"
     inkscape:window-x="0"
     inkscape:window-y="0"
     inkscape:window-maximized="1" />
  <metadata
     id="metadata5">
    <rdf:RDF>
      <cc:Work
         rdf:about="">
        <dc:format>image/svg+xml</dc:format>
        <dc:type
           rdf:resource="http://purl.org/dc/dcmitype/StillImage" />
        <dc:title></dc:title>
      </cc:Work>
    </rdf:RDF>
  </metadata>
  <g
     inkscape:label="Camada 1"
     inkscape:groupmode="layer"
     id="layer1"
     transform="translate(0,-147)">
    <path
       style="fill:#000000;stroke-width:0.26458332"
       d="m 25.721278,289.39789 c -1.2593,-0.58002 -1.82321,-1.1702 -2.37115,-2.4816 -0.33704,-0.80664 -0.40697,-2.4076 -0.40697,-9.31688 v -8.34287 h -5.96162 c -6.64375,0 -7.2832998,-0.12433 -8.3526898,-1.62371 -0.84037,-1.17828 -0.88366,-3.29563 -0.0891,-4.35981 1.34565,-1.80235 1.3933,-1.81342 8.2044298,-1.90543 l 6.19901,-0.0837 v -4.61261 -4.61262 h -5.96162 c -6.64375,0 -7.2832998,-0.12432 -8.3526898,-1.62371 -0.84037,-1.17827 -0.88366,-3.29563 -0.0891,-4.35981 1.34564,-1.80235 1.3933,-1.81342 8.2044298,-1.90542 l 6.19901,-0.0837 v -4.48033 -4.48032 h -5.96169 c -6.64374,0 -7.2832898,-0.12433 -8.3526898,-1.62371 -0.84036,-1.17828 -0.88365,-3.29563 -0.0891,-4.35981 1.34507,-1.80158 1.39444,-1.81307 8.2045498,-1.90915 l 6.1989,-0.0875 v -4.60889 -4.6089 h -6.17858 c -5.97262,0 -6.20766,-0.0198 -7.0507198,-0.59531 -2.43833,-1.66437 -2.39057,-4.80233 0.10144,-6.66438 0.6799598,-0.50808 1.1559198,-0.55152 6.9349798,-0.63304 l 6.20491,-0.0875 -0.0722,-4.67497 -0.0722,-4.67497 -6.26525,-0.1323 c -5.80447,-0.12256 -6.32014,-0.17259 -7.0114598,-0.68026 -0.91804,-0.67417 -1.67142,-2.0968 -1.67142,-3.15619 0,-1.14629 0.7876,-2.54336 1.82424,-3.23588 0.8706398,-0.58162 1.0942898,-0.60058 7.0837098,-0.60058 h 6.18468 l -0.0722,-4.69636 -0.0722,-4.69635 -6.26525,-0.13229 c -5.80447,-0.12256 -6.32014,-0.17259 -7.0114598,-0.68027 -0.91804,-0.67416 -1.67142,-2.09679 -1.67142,-3.15619 0,-1.14628 0.7876,-2.54335 1.82424,-3.23587 0.8705798,-0.58158 1.0945398,-0.60059 7.0776098,-0.60059 h 6.17858 l 0.006,-8.6651 c 0.005,-7.86267 0.0512,-8.76503 0.49592,-9.74423 0.5726,-1.26074 1.56686,-2.1173 2.90753,-2.50484 0.65419,-0.1891 16.72765,-0.25176 50.87193,-0.19832 l 49.915572,0.0781 1.01672,0.8218 c 1.907,1.5414 2.0637,2.05689 2.16635,7.12665 l 0.0913,4.50886 2.28589,0.31171 c 4.84672,0.6609 8.35527,3.57765 10.00795,8.31986 0.43386,1.2449 0.48815,2.31295 0.48815,9.60277 0,9.25521 -0.11177,9.98008 -1.96373,12.73511 l -0.99888,1.48596 0.86558,1.28625 c 1.91263,2.84215 2.04594,3.54841 2.17106,11.50218 0.073,4.64061 0.006,7.85727 -0.19094,9.12812 -0.33315,2.15294 -1.22326,4.34525 -2.26865,5.58763 l -0.67385,0.80082 0.68621,0.89967 c 1.04702,1.37272 1.91866,3.48418 2.22502,5.38989 0.33935,2.1109 0.35996,13.53188 0.0286,15.82368 -0.35155,2.43117 -1.57459,4.83131 -3.37861,6.63035 -2.15489,2.14893 -4.47394,3.18965 -8.06568,3.6196 l -1.24515,0.14905 -0.0778,13.01626 c -0.0875,14.64196 0.0175,13.87983 -2.15282,15.63404 l -1.01672,0.82181 -50.180152,0.0618 c -48.26164,0.0594 -50.22061,0.0432 -51.23848,-0.42565 z M 122.42649,222.16071 V 162.36488 H 76.653568 30.880658 v 6.61458 6.61458 l 3.50573,9.8e-4 c 4.10283,0.001 4.9111,0.30786 5.76426,2.18729 0.63571,1.40041 0.63571,1.89595 0,3.29636 -0.85316,1.87943 -1.66143,2.18613 -5.76426,2.18729 l -3.50573,0.001 v 4.7625 4.7625 l 3.50573,0.001 c 4.10283,0.001 4.9111,0.30786 5.76426,2.18729 0.63571,1.40041 0.63571,1.89594 0,3.29635 -0.85316,1.87944 -1.66143,2.18614 -5.76426,2.18729 l -3.50573,9.2e-4 v 4.7625 4.7625 l 2.84427,0.002 c 3.46333,0.002 4.69964,0.31689 5.79329,1.47649 1.19325,1.26522 1.38464,2.67 0.58122,4.26601 -0.95161,1.89025 -1.75891,2.19341 -5.84122,2.19341 h -3.37756 v 4.63021 4.63021 l 2.84427,0.002 c 3.46333,0.002 4.69964,0.31688 5.79329,1.47649 1.19325,1.26522 1.38464,2.67 0.58122,4.26601 -0.95161,1.89025 -1.75891,2.19341 -5.84122,2.19341 h -3.37756 v 4.49792 4.49791 l 2.97656,0.002 c 3.61592,0.002 4.67994,0.27008 5.70605,1.43876 1.1446,1.30363 1.32773,2.76779 0.538,4.3015 -0.97117,1.88596 -1.79527,2.19565 -5.84305,2.19565 h -3.37756 v 4.63021 4.63021 l 2.97656,0.002 c 3.61592,0.002 4.67994,0.27007 5.70605,1.43876 1.1446,1.30363 1.32773,2.76779 0.538,4.30149 -0.97117,1.88597 -1.79527,2.19566 -5.84305,2.19566 h -3.37756 v 6.35 6.35 h 45.77291 45.772922 z m -62.044792,33.69002 c -4.89004,-0.59976 -8.78245,-3.61883 -10.23137,-7.93578 -1.04054,-3.10016 -0.89426,-9.05246 0.3533,-14.37716 0.79497,-3.393 2.75982,-7.24956 4.69475,-9.21477 2.48084,-2.51965 5.94529,-4.01876 9.26624,-4.0096 1.83932,0.005 2.17694,0.14518 5.97125,2.47798 4.27917,2.63091 8.68541,2.63091 12.964577,0 3.79431,-2.3328 4.13193,-2.47291 5.97125,-2.47798 4.53428,-0.0125 9.05841,2.70419 11.587895,6.95842 2.54061,4.27295 4.11463,13.35124 3.22657,18.60945 -0.88819,5.25893 -4.884605,9.12715 -10.202385,9.8751 -1.70648,0.24002 -31.727107,0.32431 -33.602077,0.0943 z m 33.231867,-8.06144 c 1.21141,-0.40487 2.27631,-1.43867 2.6508,-2.57338 0.4872,-1.47622 0.12422,-6.81229 -0.67619,-9.94058 -1.05182,-4.11087 -2.76571,-6.45449 -5.05502,-6.91235 -0.64121,-0.12824 -1.17272,0.073 -2.73145,1.03397 -7.136567,4.39999 -14.618707,4.40729 -21.732747,0.0212 -1.04552,-0.64462 -2.0902,-1.17203 -2.32151,-1.17203 -1.03863,0 -2.69145,1.13325 -3.62075,2.48255 -1.6213,2.35407 -2.78446,7.25745 -2.78665,11.74731 -0.002,3.11995 0.77159,4.59394 2.77707,5.29474 1.15416,0.40332 32.293597,0.42058 33.496447,0.0186 z M 72.364248,220.6919 c -5.27224,-1.27826 -10.2519,-5.98878 -11.8712,-11.22959 -2.79371,-9.04174 2.57243,-18.85428 11.66261,-21.3263 2.3264,-0.63265 6.71474,-0.63168 8.86354,0.002 5.853247,1.726 10.729867,6.82887 11.906787,12.4592 1.63374,7.81576 -1.99749,15.40153 -9.04619,18.89784 -0.90053,0.44667 -2.388807,0.9893 -3.307297,1.20584 -2.06061,0.4858 -6.18619,0.4813 -8.20825,-0.009 z m 7.99349,-8.27684 c 1.61205,-0.8361 3.336737,-2.54407 4.185537,-4.14498 0.61556,-1.16098 0.7019,-1.63059 0.70533,-3.83646 0.005,-2.96319 -0.50152,-4.27351 -2.40878,-6.23594 -1.757717,-1.80856 -3.702437,-2.61269 -6.318547,-2.61269 -2.58024,0 -4.4181,0.74894 -6.19275,2.52359 -1.82539,1.82539 -2.53957,3.6085 -2.53335,6.32504 0.006,2.67612 0.54001,4.07407 2.27449,5.95576 1.93782,2.10229 3.65269,2.7781 6.84849,2.69892 1.76489,-0.0437 2.50522,-0.18863 3.43958,-0.67324 z m 52.923582,39.24311 c 0.40981,-0.21192 1.02239,-0.77406 1.36129,-1.2492 0.60345,-0.84605 0.61775,-1.01139 0.6929,-8.00764 0.0752,-6.99945 0.0645,-7.16767 -0.52917,-8.32832 -0.6825,-1.33434 -1.67065,-2.01172 -3.31922,-2.27534 l -1.12313,-0.1796 v 10.38639 10.38638 l 1.0861,-0.17368 c 0.59736,-0.0955 1.42141,-0.34707 1.83123,-0.55899 z m 0.14152,-28.44911 c 0.48261,-0.29827 1.12264,-1.05616 1.43256,-1.69638 0.53492,-1.105 0.55667,-1.47996 0.4818,-8.3056 -0.0739,-6.74099 -0.10951,-7.18996 -0.62394,-7.87841 -0.87165,-1.16653 -1.81855,-1.73695 -3.12842,-1.88459 l -1.22085,-0.13761 v 10.22087 10.22087 h 1.09325 c 0.6382,0 1.45635,-0.22441 1.9656,-0.53915 z m -0.14575,-28.36658 c 0.48109,-0.32742 1.12377,-0.93147 1.42819,-1.34232 0.53103,-0.71668 0.5535,-1.05154 0.5535,-8.24883 0,-7.16411 -0.0246,-7.53471 -0.54552,-8.23247 -0.87117,-1.16685 -1.81817,-1.73751 -3.12842,-1.8852 l -1.22085,-0.1376 v 10.22086 10.22087 h 1.0192 c 0.6214,0 1.36061,-0.23236 1.8939,-0.59531 z"
       id="path21"
       inkscape:connector-curvature="0" />
  </g>
</svg>
